<?xml version="1.0" encoding="UTF-8" standalone="no"?>
<!DOCTYPE svg PUBLIC "-//W3C//DTD SVG 1.1//EN" "http://www.w3.org/Graphics/SVG/1.1/DTD/svg11.dtd">
<svg xmlns="http://www.w3.org/2000/svg">
<metadata/>
<defs>
<font id="neteasefontRegular" horiz-adv-x="1000">
<font-face units-per-em="1000" ascent="1000" descent="0"/>
<missing-glyph horiz-adv-x="250"/>
<glyph horiz-adv-x="0"/>
<glyph horiz-adv-x="0"/>
<glyph unicode=" " horiz-adv-x="250"/>
<glyph unicode="	" horiz-adv-x="250"/>
<glyph unicode=" " horiz-adv-x="250"/>
<glyph unicode="A" d="M508 0q-103 0 -194 39t-158.5 106.5t-106.5 158.5t-39 194t39 193.5t106.5 158t158.5 106.5t194 39t193.5 -39t158 -106.5t106.5 -158t39 -193.5t-39 -194t-106.5 -158.5t-158 -106.5t-193.5 -39zM839 580h-249v249h-165v-249h-249v-165h249v-249h165v249h249v165z"/>
<glyph unicode="B" horiz-adv-x="1192" d="M1094 113l-113 -113l-292 291q-54 -37 -118 -57t-130 -20q-91 0 -171 34.5t-139.5 94t-94 139.5t-34.5 171t34.5 171t94 139.5t139.5 94t171 34.5q90 0 170 -34.5t139.5 -94t94 -139.5t34.5 -171q0 -66 -19.5 -129.5t-57.5 -118.5zM732 653q0 60 -23 113.5t-62.5 93 t-92.5 63t-113 23.5t-113.5 -23t-93.5 -63t-63 -93.5t-23 -113.5t23 -113t63 -93t93.5 -63t113.5 -23t112.5 23t92.5 63t63 93t23 113z"/>
<glyph unicode="C" horiz-adv-x="1134" d="M3 1v679l594 -425l594 425v-679h-1188zM3 849h1188l-594 -424z"/>
<glyph unicode="D" horiz-adv-x="1038" d="M1125 85l-116 -115l-300 299q-57 -38 -122 -58.5t-134 -20.5q-93 0 -175.5 35.5t-143.5 96.5t-96.5 143.5t-35.5 175.5t35.5 175.5t96.5 144t143.5 97t175.5 35.5t175.5 -35.5t144 -97t97 -144t35.5 -175.5q0 -68 -20.5 -133t-59.5 -122zM754 641q0 62 -24 117t-65 96 t-95.5 65t-116.5 24t-116.5 -24t-95.5 -65t-65 -96t-24 -117t24 -116.5t65 -95.5t95.5 -64.5t116.5 -23.5t116.5 24t95.5 64.5t65 95t24 116.5zM492 596h175v88h-175v174h-87v-174h-175v-88h175v-175h87v175z"/>
<glyph unicode="E" horiz-adv-x="847" d="M0 836h250q42 0 78 -12.5t71 -31t71 -40t77.5 -40t91 -31t112.5 -12.5v-417h-83q-29 0 -65 12.5t-77 31t-86 40t-91 40t-92.5 31t-89.5 12.5v-417h-167v834z"/>
<glyph unicode="F" horiz-adv-x="605" d="M202 1175v-101h201v101h202v-202h-101v-201h101v-202h-202v101h-201v-101h-202v202h101v201h-101v202h202z"/>
<glyph unicode="G" d="M766 85l-85 -85l-298 298l-298 -298l-85 85l298 298l-298 298l85 85l298 -298l298 298l85 -85l-298 -298z"/>
<glyph unicode="H" horiz-adv-x="950" d="M931 174l-169 -169l-297 296l-296 -296l-169 169l296 296l-296 297l169 169l296 -296l297 296l169 -169l-296 -297z"/>
<glyph unicode="I" d="M758 0h-758v758h758v-758zM580 580h-401v-401h401v401z"/>
<glyph unicode="J" horiz-adv-x="1051" d="M1039 516h-523v523l187 -187l187 187l149 -149l-187 -187zM330 181l-187 -186l-148 148l186 187l-186 186h521v-521z"/>
<glyph unicode="K" d="M822 679l-179 -178l-142 142l178 179l-178 178h499v-499zM0 0v501l178 -179l179 179l142 -143l-178 -179l178 -179h-499z"/>
<glyph unicode="L" horiz-adv-x="1082" d="M180 173v868h902v-868h-902zM902 867h-361v-87h181l-361 -346l90 -87l361 347v-174h90v347zM992 0h-992v954h90v-867h902v-87z"/>
<glyph unicode="a" d="M909 273v91h-273v-91v-91v-91h91v-91h-727v1000h1000v-727h-91zM909 909h-818v-818h454v91h-363v91h363v91h-363v91h363h91h273v454zM182 636h636v-91h-636v91zM182 818h636v-91h-636v91zM818 182v-91h-91v91h91zM909 273v-91h-91v91h91z"/>
<glyph unicode="b" d="M750 167v-167h-500v167h-250v583h250v250h500v-250h250v-583h-250zM333 83h334v167h-334v-167zM667 917h-334v-167h334v167zM917 667h-84v-250h-666v250h-84v-417h167v83h500v-83h167v417z"/>
<glyph unicode="c" horiz-adv-x="1182" d="M1182 182h-182v-182h-182v182h-182v182h182v181h182v-181h182v-182zM545 455v90h-90v-90h90v-91h-90v-91h90v-91h-363v454h545v-91h-91v-90h-91zM364 545h-91v-90h91v90zM364 364h-91v-91h91v91zM909 727h-818v-636h636v-91h-727v909h182v91h182v-91h272v91h182v-91h182 v-273h-91v91z"/>
<glyph unicode="d" horiz-adv-x="585" d="M580 1002l-288 -320l-295 322z"/>
<glyph unicode="e" d="M1015 513v-85h-84v-84h-85v-85h-85v-84h-84v84h-85v85h-84v84h84v85h85v85h84v84h85v85h169v-85h85v-84v-85h-85zM592 259v-84h85v-85h-85h-84h-85v254h85v-85h84zM931 1105h-846v-930h169v-85h-254v1100h1015v-339h-84v254zM169 513h254v-85h-254v85zM169 682h423v-84 h-423v84zM169 1021h677v-85h-677v85zM169 851h592v-84h-592v84z"/>
<glyph unicode="f" d="M670 251h84v-251h-754v251h84v-167h586v167v0zM502 502h168l-293 -335l-293 335h167v252h251v-252v0z"/>
<glyph unicode="g" horiz-adv-x="1265" d="M502 1002l129 -129l-285 -285h807v-176h-804l282 -282l-129 -129l-500 501z"/>
<glyph unicode="h" horiz-adv-x="933" d="M933 424h-255v-424h-424v424h-254l400 509h-400v170h933v-170h-400z"/>
<glyph unicode="i" d="M1210 692v-173h-176q-8 -43 -25 -82t-40 -74l125 -124l-122 -123l-125 125q-69 -47 -156 -65v-176h-172v176q-87 18 -156 65l-125 -125l-122 123l125 124q-47 72 -65 156h-176v173h176q8 42 25 81t40 74l-125 125l122 122l125 -124q35 23 74 39.5t82 24.5v176h172v-176 q43 -8 82 -24.5t74 -39.5l125 124l122 -122l-125 -125q23 -35 40 -74t25 -81h176zM605 870q-55 0 -103 -20.5t-84 -56.5t-57 -84.5t-21 -103.5t21 -103t57 -84t84 -56.5t103 -20.5t103 20.5t84 56.5t57 84t21 103t-21 103.5t-57 84.5t-84 56.5t-103 20.5z"/>
<glyph unicode="j" horiz-adv-x="703" d="M36 403q6 -3 13 -3q14 0 27.5 3.5t27.5 3.5q8 0 12.5 -3t4.5 -12q0 -14 -3.5 -27.5t-3.5 -27.5q0 -9 4.5 -11.5t12.5 -2.5q14 0 27.5 3t27.5 3q19 0 19 -16q0 -14 -4 -26.5t-4 -26.5q0 -16 16 -16q14 0 28.5 3.5t29.5 3.5q9 0 11 -2.5t2 -11.5q0 -14 -1 -29t-1 -29 q0 -6 1 -9q34 -3 69 -3q8 0 12.5 2.5t4.5 11.5q0 14 -3.5 27.5t-3.5 27.5q0 9 4 11.5t13 2.5q14 0 27.5 -3.5t27.5 -3.5q18 0 18 17q0 14 -4 26.5t-4 26.5q0 15 16 15q15 0 29.5 -3t28.5 -3q16 0 16 16q0 13 -4 25.5t-4 25.5q0 11 7.5 14t16.5 3q31 0 63 -3q3 -2 3.5 -6 t0.5 -8q0 -13 -3.5 -25.5t-3.5 -25.5q0 -7 3 -13q-3 -5 -3 -12q0 -14 3.5 -26t3.5 -26q0 -17 -17 -17q-14 0 -28 3.5t-28 3.5q-17 0 -17 -16q0 -14 4 -26.5t4 -26.5q0 -16 -17 -16q-14 0 -28 4t-28 4q-18 0 -18 -17q0 -14 4 -26t4 -26q0 -16 -16 -16q-14 0 -28.5 3.5 t-29.5 3.5q-9 0 -11 -3t-2 -11q0 -15 1 -29.5t1 -29.5q0 -6 -1 -9q-17 -2 -34.5 -2.5t-34.5 -0.5q-8 0 -12.5 3t-4.5 12q0 14 3.5 27t3.5 27q0 10 -4.5 12.5t-13.5 2.5q-14 0 -26.5 -3.5t-26.5 -3.5q-9 0 -14 3t-5 13q0 14 3.5 26.5t3.5 26.5q0 16 -16 16q-14 0 -28 -3.5 t-29 -3.5q-16 0 -16 16q0 14 4 26t4 26q0 16 -16 16q-15 0 -30 -3t-30 -3q-10 0 -12.5 6t-2.5 14q0 15 2 30.5t2 30.5v78zM36 792q6 -3 13 -3q14 0 27.5 3.5t27.5 3.5q8 0 12.5 -3t4.5 -12q0 -14 -3.5 -27.5t-3.5 -27.5q0 -9 4.5 -11.5t12.5 -2.5q14 0 27.5 3t27.5 3 q19 0 19 -16q0 -14 -4 -26.5t-4 -26.5q0 -16 16 -16q14 0 28.5 3.5t29.5 3.5q9 0 11 -2.5t2 -11.5q0 -14 -1 -29t-1 -29q0 -6 1 -9q34 -3 69 -3q8 0 12.5 2.5t4.5 11.5q0 14 -3.5 27.5t-3.5 27.5q0 9 4 11.5t13 2.5q14 0 27.5 -3.5t27.5 -3.5q18 0 18 17q0 14 -4 26.5 t-4 26.5q0 15 16 15q15 0 29.5 -3.5t28.5 -3.5q16 0 16 17q0 13 -4 25.5t-4 25.5q0 11 7.5 14t16.5 3q31 0 63 -3q4 -4 4 -14q0 -13 -3.5 -25.5t-3.5 -26.5q0 -6 3 -12q-3 -5 -3 -12q0 -14 3.5 -26t3.5 -26q0 -17 -17 -17q-14 0 -28 3.5t-28 3.5q-17 0 -17 -16 q0 -14 4 -26.5t4 -26.5q0 -16 -17 -16q-14 0 -28 4t-28 4q-18 0 -18 -17q0 -14 4 -26t4 -26q0 -16 -16 -16q-14 0 -28.5 3.5t-29.5 3.5q-9 0 -11 -3t-2 -11q0 -15 1 -29.5t1 -29.5q0 -6 -1 -9q-17 -2 -34.5 -2.5t-34.5 -0.5q-8 0 -12.5 3t-4.5 12q0 14 3.5 27t3.5 27 q0 10 -4.5 12.5t-13.5 2.5q-14 0 -26.5 -3.5t-26.5 -3.5q-9 0 -14 3t-5 13q0 14 3.5 26.5t3.5 26.5q0 16 -16 16q-14 0 -28 -3.5t-29 -3.5q-16 0 -16 16q0 14 4 26t4 26q0 16 -16 16q-15 0 -30 -3t-30 -3q-10 0 -12.5 6t-2.5 14q0 15 2 30.5t2 30.5v78z"/>
<glyph unicode="k" horiz-adv-x="596" d="M588 427q-6 3 -13 3q-14 0 -27.5 -3.5t-27.5 -3.5q-9 0 -13 3t-4 12q0 14 3.5 27.5t3.5 27.5q0 9 -4 11.5t-13 2.5q-14 0 -27.5 -3t-27.5 -3q-19 0 -19 16q0 14 4 26.5t4 26.5q0 16 -16 16q-14 0 -28.5 -3.5t-29.5 -3.5q-10 0 -11.5 3t-1.5 11q0 14 1 29t1 29q0 6 -1 9 q-29 3 -58 3q-11 0 -19.5 -0.5t-8.5 -13.5q0 -14 3.5 -27.5t3.5 -27.5t-17 -14q-14 0 -27.5 3.5t-27.5 3.5q-18 0 -18 -17q0 -14 4 -26.5t4 -26.5q0 -15 -16 -15q-15 0 -29.5 3t-28.5 3q-10 0 -13 -3.5t-3 -12.5q0 -13 4 -25.5t4 -25.5q0 -9 -4.5 -12.5t-11.5 -4t-15 0 t-15 0.5q-11 0 -20.5 0.5t-20.5 1.5q-3 2 -3.5 6t-0.5 8q0 13 3.5 25.5t3.5 25.5q0 7 -3 13q3 4 3 12q0 13 -3.5 25.5t-3.5 26.5q0 17 17 17q14 0 28 -3.5t28 -3.5q17 0 17 16q0 14 -4 26.5t-4 26.5q0 16 17 16q14 0 28 -4t28 -4q18 0 18 17q0 14 -4 26.5t-4 25.5 q0 16 16 16q14 0 28.5 -3.5t29.5 -3.5q10 0 11.5 3t1.5 11q0 15 -1 29.5t-1 29.5q0 6 1 9q28 3 57 3q11 0 20 -0.5t9 -14.5t-3.5 -27t-3.5 -27q0 -9 4 -12t14 -3q14 0 26.5 3.5t26.5 3.5q19 0 19 -16q0 -14 -3.5 -27t-3.5 -26q0 -16 16 -16q14 0 28.5 3.5t28.5 3.5 q16 0 16 -16q0 -14 -4 -26.5t-4 -25.5q0 -9 3 -12.5t13 -3.5q15 0 30 3t30 3q13 0 14 -8.5t1 -18.5q0 -14 -2 -27t-2 -27v-78zM588 38q-6 3 -13 3q-14 0 -27.5 -3.5t-27.5 -3.5q-9 0 -13 3t-4 12q0 14 3.5 27.5t3.5 27.5q0 9 -4 11.5t-13 2.5q-14 0 -27.5 -3t-27.5 -3 q-19 0 -19 16q0 14 4 26.5t4 26.5q0 16 -16 16q-14 0 -28.5 -3.5t-29.5 -3.5q-10 0 -11.5 3t-1.5 11q0 14 1 29t1 29q0 6 -1 9q-29 3 -58 3q-11 0 -19.5 -0.5t-8.5 -13.5q0 -14 3.5 -27.5t3.5 -27.5t-17 -14q-14 0 -27.5 3.5t-27.5 3.5q-18 0 -18 -17q0 -14 4 -26.5t4 -26.5 q0 -15 -16 -15q-15 0 -29.5 3.5t-28.5 3.5q-10 0 -13 -4t-3 -13q0 -13 4 -25.5t4 -25.5q0 -9 -4.5 -12.5t-11.5 -4t-15 0t-15 0.5q-11 0 -20.5 0.5t-20.5 1.5q-3 2 -3.5 6t-0.5 8q0 13 3.5 25.5t3.5 26.5q0 6 -3 12q3 4 3 12q0 13 -3.5 25.5t-3.5 26.5q0 17 17 17 q14 0 28 -3.5t28 -3.5q17 0 17 16q0 14 -4 26.5t-4 26.5q0 16 17 16q14 0 28 -4t28 -4q18 0 18 17q0 14 -4 26.5t-4 25.5q0 16 16 16q14 0 28.5 -3.5t29.5 -3.5q10 0 11.5 3t1.5 11q0 15 -1 29.5t-1 29.5q0 6 1 9q28 3 57 3q11 0 20 -0.5t9 -14.5t-3.5 -27t-3.5 -27 q0 -9 4 -12t14 -3q14 0 26.5 3.5t26.5 3.5q19 0 19 -16q0 -14 -3.5 -27t-3.5 -26q0 -16 16 -16q14 0 28.5 3.5t28.5 3.5q16 0 16 -16q0 -14 -4 -26.5t-4 -25.5q0 -9 3 -12.5t13 -3.5q15 0 30 3t30 3q13 0 14 -8.5t1 -18.5q0 -14 -2 -27t-2 -27v-78z"/>
<glyph unicode="l" horiz-adv-x="327" d="M326 418l-320 288l322 296z"/>
<glyph unicode="m" horiz-adv-x="1036" d="M754 2v922h252v-922h-252zM419 421h168v-167h-168v167zM419 673h168v-168h-168v168zM0 924h251v-922h-251v922z"/>
<glyph unicode="n" horiz-adv-x="1090" d="M0 996h1090v-265h-1090v265z"/>
<glyph unicode="o" d="M1050 404h-404v-404h-242v404h-404v242h404v404h242v-404h404v-242z"/>
<glyph unicode="p" d="M655 691h-236v-236h-158v236h-236v158h236v236h158v-236h236v-158z"/>
<glyph unicode="q" horiz-adv-x="1001" d="M338 913q1 23 1 41v28.5t-1 13.5q6 -3 17.5 -3.5t24.5 0.5t25 2t18 1q4 0 17 1t27.5 2t26 0.5t14.5 -3.5t3.5 -14.5t-0.5 -25t-2 -26.5t-1 -17q0 -2 -0.5 -15t-0.5 -28v-27.5t1 -12.5q3 -1 16 -1.5t27.5 -1t27 0t14.5 2.5q3 3 2 16t-2.5 27.5t-2.5 26t3 13.5 q7 3 18.5 3.5t23.5 -0.5t23.5 -2t19.5 -1q4 0 17 1t27.5 2t26 0.5t14.5 -3.5t3.5 -14.5t-0.5 -25t-2 -26.5t-1 -17t1 -16.5t1.5 -26.5t0.5 -26t-3 -14q-2 -1 -15 -1t-29 0.5t-28.5 1t-12.5 -0.5q0 -5 -1 -17t-1.5 -26t-0.5 -25.5t3 -14.5t15 -3t26 0.5t26.5 1.5t17.5 1 q4 0 17 1t27.5 1.5t26.5 0t14 -2.5q3 -5 3.5 -16t0 -24t-2 -25t-1.5 -18q0 -21 0.5 -42t-0.5 -41h-85q-5 0 -17.5 1t-26 2t-25.5 0.5t-16 -3.5q-1 -1 -1.5 -13.5t-0.5 -28t0.5 -28t1.5 -13.5q3 -3 16.5 -2t28 2.5t26.5 2.5t14 -3q3 -7 3.5 -18t-0.5 -23t-2 -23.5t-1 -18.5 q0 -5 1 -17.5t2 -26t0.5 -25t-3.5 -14.5t-14.5 -3.5t-26 0.5t-27.5 2t-17 1t-17 -1t-27 -1.5t-26.5 -0.5t-14.5 3q-1 1 -1 14t0.5 28.5t1 28t-0.5 12.5q-5 -1 -17.5 0.5t-26 2.5t-25.5 0.5t-16 -3.5q-3 -3 -3 -14.5t0.5 -25.5t1.5 -26.5t1 -16.5v-15.5v-28.5v-27.5v-12.5 h-85q-4 0 -16.5 -1t-27 -1.5t-26.5 -0.5t-15 3t-3 15t0.5 25.5t1.5 26t1 17.5q0 2 0.5 15t1 28t0 27.5t-1.5 12.5q-3 1 -15.5 1.5t-27.5 0.5t-27.5 -0.5t-14.5 -1.5q-3 -3 -2 -16t3 -27.5t2.5 -26.5t-3.5 -13q-7 -3 -18 -3.5t-23.5 0.5t-24 2t-19.5 1q-4 0 -16.5 -1t-27 -2 t-26.5 -0.5t-15 3.5t-3 14.5t0.5 25t1.5 26t1 17.5q0 4 -1 16.5t-1.5 26.5t0 26t2.5 14q2 1 15.5 1t29 -1t28 -1t12.5 1q0 4 1.5 16.5t2 26.5t0 25.5t-3.5 14.5t-15 3t-26 -0.5t-26.5 -1.5t-17.5 -1q-3 0 -16 -1t-27.5 -1.5t-27 -0.5t-13.5 3q-3 4 -3.5 15.5t0.5 24.5t2 25 t1 18v83h84q5 0 18 -1t26.5 -2t25.5 -0.5t15 3.5q1 1 1.5 13.5t0.5 27.5t-0.5 28t-1.5 14q-3 3 -16 2t-27.5 -2.5t-27 -2.5t-14.5 3q-3 7 -3.5 18t0.5 23t2 23t1 19q0 4 -1 16.5t-1.5 26.5t-0.5 26t3 14q4 3 16 3.5t26 -0.5t26 -2t17 -1q8 0 19.5 1t24 2t23.5 0.5t18 -3.5 q4 -2 3.5 -13.5t-2.5 -26t-3 -27.5t2 -16q2 -2 14.5 -2.5t27.5 -0.5t28 1t15 2q3 1 2 14t-2.5 28t-2 27.5t2.5 13.5zM253 664q-3 -5 -3.5 -16t0.5 -24t2 -25t1 -18q0 -8 -1 -19t-2 -23t-0.5 -23t3.5 -18q2 -4 14.5 -3.5t27 2.5t27.5 3t16 -2q4 -4 3 -16.5t-3 -27t-3 -26 t3 -13.5q7 -3 18.5 -3.5t24 0.5t24 2t18.5 1q8 0 19.5 -1t24 -2t23.5 -0.5t18 3.5q4 1 3.5 13t-2.5 26.5t-3 27.5t2 16t16.5 2t28 -3t26.5 -2.5t14 3.5q3 7 3.5 18t0 23t-2 23t-1.5 19q0 7 1 18.5t2 23.5t0.5 23t-3.5 18q-2 4 -14 3t-26.5 -2.5t-28 -2.5t-16.5 2t-2 16t3 27 t2.5 26t-3.5 14q-7 3 -18 3.5t-23.5 -0.5t-24 -2t-19.5 -1q-4 0 -17 1t-27 1.5t-26.5 0.5t-14.5 -3q-5 -6 -3.5 -18t4 -24.5t4 -24t-4.5 -16.5q-5 -5 -17 -3.5t-26 4t-26 3.5t-16 -4z"/>
<glyph unicode="r" horiz-adv-x="327" d="M2 997l320 -289l-322 -295z"/>
<glyph unicode="s" horiz-adv-x="656" d="M0 994h655v-183h-655v183z"/>
<glyph unicode="t" d="M0 570v95h95v95h190v95h285v-95h190v-95h95v-95h-855zM190 190h95v285h95v-285h95v285h95v-285h95v285h95v-475h-95h-95h-95h-95h-95h-95h-95v475h95v-285z"/>
<glyph unicode="u" horiz-adv-x="585" d="M-7 684l287 320l296 -322z"/>
<glyph unicode="v" horiz-adv-x="583" d="M500 83v209v458q0 43 -16.5 74.5t-44.5 52t-66 30.5t-81 10t-81 -10t-66.5 -30.5t-45 -52t-16.5 -74.5v-583q0 -25 6.5 -41t17.5 -25t26.5 -13t33.5 -5h83q31 0 48 10t24.5 23.5t9 27.5t1.5 23v541q0 17 -12 29.5t-29 12.5t-29.5 -12.5t-12.5 -29.5v-541h-83v583 q0 26 10 42t27 25t39.5 12.5t48.5 3.5t48.5 -3.5t39.5 -12.5t27 -25t10 -42v-583q0 -26 -14.5 -55t-38 -54t-53.5 -41.5t-61 -16.5h-83q-63 11 -96.5 38t-49.5 56q-18 33 -21 73v583q0 52 19.5 97.5t53.5 79.5t79.5 53.5t97.5 19.5h83q52 0 97.5 -19.5t79.5 -53.5 t53.5 -79.5t19.5 -97.5v-500v-167h-83z"/>
<glyph unicode="w" horiz-adv-x="683" d="M572 1144q118 0 222.5 -45t182 -122.5t122.5 -182t45 -222.5q0 -119 -45 -223t-122.5 -181.5t-182 -122.5t-222.5 -45q-119 0 -223 45t-181.5 122.5t-122.5 181.5t-45 223q0 118 45 222.5t122.5 182t181.5 122.5t223 45z"/>
<glyph unicode="x" horiz-adv-x="810" d="M162 566v-81h80v-81h81v81h81v81h162v-162h-81v-81h-81v-80h81v-81h81v-162h-162v81h-81v81h-81v-81h-80v-81h-162v162h81v81h81v80h-81v81h-81v162h162z"/>
<glyph unicode="y" horiz-adv-x="1265" d="M645 0l-128 128l283 283h-800v174h797l-280 280l128 128l497 -497z"/>
<glyph unicode="z" horiz-adv-x="1240" d="M91 573l221 -193q83 83 166.5 163.5t171.5 158.5q51 47 104.5 94.5t113.5 83.5q20 -6 34 -21.5t22 -33.5q-51 -46 -97 -98t-90 -105q-103 -123 -193.5 -253t-174.5 -267q-84 103 -176 199t-186 190z"/>
<glyph unicode="" horiz-adv-x="565" d="M0 565h565v-565h-565v565z"/>
</font>
</defs>
</svg>
